<svg width="24" height="25" viewBox="0 0 24 25" fill="none" xmlns="http://www.w3.org/2000/svg">
<g clip-path="url(#clip0_715_6533)">
<path d="M10.2858 16.9304L8.77724 23.2732C8.74739 23.3938 8.6922 23.5066 8.61534 23.6041C8.53849 23.7017 8.44174 23.7817 8.33153 23.839C8.21521 23.8894 8.08976 23.9155 7.96296 23.9155C7.83615 23.9155 7.7107 23.8894 7.59439 23.839L1.90296 21.3532C1.78358 21.2968 1.67853 21.2141 1.5957 21.1112C1.51288 21.0084 1.45443 20.8881 1.42473 20.7594C1.39504 20.6308 1.39488 20.497 1.42426 20.3683C1.45365 20.2395 1.51181 20.1191 1.59439 20.0161C1.59439 20.0161 4.27956 16.6518 6.0001 14.4961" fill="#7D83FF"/>
<path d="M10.2858 16.9304L8.77724 23.2732C8.74739 23.3938 8.6922 23.5066 8.61534 23.6041C8.53849 23.7017 8.44174 23.7817 8.33153 23.839C8.21521 23.8894 8.08976 23.9155 7.96296 23.9155C7.83615 23.9155 7.7107 23.8894 7.59439 23.839L1.90296 21.3532C1.78358 21.2968 1.67853 21.2141 1.5957 21.1112C1.51288 21.0084 1.45443 20.8881 1.42473 20.7594C1.39504 20.6308 1.39488 20.497 1.42426 20.3683C1.45365 20.2395 1.51181 20.1191 1.59439 20.0161C1.59439 20.0161 4.27956 16.6518 6.0001 14.4961" stroke="white" stroke-linecap="round" stroke-linejoin="round"/>
<path d="M13.7148 16.8442L15.2577 23.2728C15.2884 23.3954 15.3458 23.5096 15.4258 23.6074C15.5058 23.7052 15.6065 23.7841 15.7206 23.8385C15.8337 23.8896 15.9564 23.9161 16.0806 23.9161C16.2047 23.9161 16.3274 23.8896 16.4406 23.8385L22.0977 21.3528C22.2189 21.297 22.3254 21.2137 22.4087 21.1096C22.492 21.0054 22.5499 20.8832 22.5777 20.7528C22.6102 20.6252 22.6116 20.4916 22.5818 20.3633C22.5519 20.2351 22.4917 20.1158 22.4063 20.0156L17.812 14.1699" fill="#7D83FF"/>
<path d="M13.7148 16.8442L15.2577 23.2728C15.2884 23.3954 15.3458 23.5096 15.4258 23.6074C15.5058 23.7052 15.6065 23.7841 15.7206 23.8385C15.8337 23.8896 15.9564 23.9161 16.0806 23.9161C16.2047 23.9161 16.3274 23.8896 16.4406 23.8385L22.0977 21.3528C22.2189 21.297 22.3254 21.2137 22.4087 21.1096C22.492 21.0054 22.5499 20.8832 22.5777 20.7528C22.6102 20.6252 22.6116 20.4916 22.5818 20.3633C22.5519 20.2351 22.4917 20.1158 22.4063 20.0156L17.812 14.1699" stroke="white" stroke-linecap="round" stroke-linejoin="round"/>
<path d="M11.7768 17.0672C16.0373 17.0672 19.4911 13.6134 19.4911 9.35296C19.4911 5.09247 16.0373 1.63867 11.7768 1.63867C7.5163 1.63867 4.0625 5.09247 4.0625 9.35296C4.0625 13.6134 7.5163 17.0672 11.7768 17.0672Z" fill="#7D83FF" stroke="white" stroke-linecap="round" stroke-linejoin="round"/>
<path d="M11.7762 12.7829C13.6698 12.7829 15.2048 11.2479 15.2048 9.35435C15.2048 7.4608 13.6698 5.92578 11.7762 5.92578C9.88268 5.92578 8.34766 7.4608 8.34766 9.35435C8.34766 11.2479 9.88268 12.7829 11.7762 12.7829Z" fill="#7D83FF" stroke="white" stroke-linecap="round" stroke-linejoin="round"/>
</g>
<defs>
<clipPath id="clip0_715_6533">
<rect width="24" height="24" fill="white" transform="translate(0 0.78125)"/>
</clipPath>
</defs>
</svg>
