<svg width="24" height="25" viewBox="0 0 24 25" fill="none" xmlns="http://www.w3.org/2000/svg">
<mask id="mask0_400_1004" style="mask-type:alpha" maskUnits="userSpaceOnUse" x="0" y="0" width="24" height="25">
<rect y="0.78125" width="24" height="24" fill="#D9D9D9"/>
</mask>
<g mask="url(#mask0_400_1004)">
<path d="M5 21.7812C4.45 21.7812 3.97917 21.5854 3.5875 21.1938C3.19583 20.8021 3 20.3313 3 19.7812V5.78125C3 5.23125 3.19583 4.76042 3.5875 4.36875C3.97917 3.97708 4.45 3.78125 5 3.78125H11V21.7812H5ZM13 21.7812V12.7812H21V19.7812C21 20.3313 20.8042 20.8021 20.4125 21.1938C20.0208 21.5854 19.55 21.7812 19 21.7812H13ZM13 10.7812V3.78125H19C19.55 3.78125 20.0208 3.97708 20.4125 4.36875C20.8042 4.76042 21 5.23125 21 5.78125V10.7812H13Z" fill="white"/>
</g>
</svg>
