<svg width="20" height="20" viewBox="0 0 20 20" fill="none" xmlns="http://www.w3.org/2000/svg">
<mask id="mask0_529_844" style="mask-type:alpha" maskUnits="userSpaceOnUse" x="0" y="0" width="20" height="20">
<rect x="0.761719" y="0.549805" width="18.8988" height="18.8988" fill="#D9D9D9"/>
</mask>
<g mask="url(#mask0_529_844)">
<path d="M6.27349 17.0862C5.84039 17.0862 5.46963 16.932 5.16121 16.6236C4.85279 16.3152 4.69858 15.9444 4.69858 15.5113V5.27447H3.91113V3.69956H7.84839V2.91211H12.5731V3.69956H16.5104V5.27447H15.7229V15.5113C15.7229 15.9444 15.5687 16.3152 15.2603 16.6236C14.9519 16.932 14.5811 17.0862 14.148 17.0862H6.27349ZM7.84839 13.9364H9.4233V6.84937H7.84839V13.9364ZM10.9982 13.9364H12.5731V6.84937H10.9982V13.9364Z" fill="#B7B7B7"/>
</g>
</svg>
