<svg width="17" height="18" viewBox="0 0 17 18" fill="none" xmlns="http://www.w3.org/2000/svg">
<path d="M0.365234 17.6618V14.512H16.1143V17.6618H0.365234ZM1.94014 12.9371V9.59045L10.7596 0.790675C10.904 0.646309 11.0713 0.534754 11.2616 0.456008C11.4519 0.377263 11.652 0.337891 11.862 0.337891C12.072 0.337891 12.2754 0.377263 12.4723 0.456008C12.6692 0.534754 12.8464 0.652871 13.0038 0.810362L14.0866 1.91279C14.2441 2.05716 14.3589 2.22778 14.4311 2.42464C14.5033 2.6215 14.5394 2.82493 14.5394 3.03491C14.5394 3.23178 14.5033 3.42536 14.4311 3.61566C14.3589 3.80596 14.2441 3.97986 14.0866 4.13735L5.28681 12.9371H1.94014ZM11.862 4.11766L12.9645 3.01523L11.862 1.91279L10.7596 3.01523L11.862 4.11766Z" fill="#B7B7B7"/>
</svg>
