<svg width="24" height="25" viewBox="0 0 24 25" fill="none" xmlns="http://www.w3.org/2000/svg">
<mask id="mask0_133_756" style="mask-type:alpha" maskUnits="userSpaceOnUse" x="0" y="0" width="24" height="25">
<rect y="0.78125" width="24" height="24" fill="#D9D9D9"/>
</mask>
<g mask="url(#mask0_133_756)">
<path d="M10.925 14.8313L16.6 9.18125L15.175 7.75625L10.925 12.0063L8.8 9.88125L7.4 11.2812L10.925 14.8313ZM1 21.7812V19.7812H23V21.7812H1ZM4 18.7812C3.45 18.7812 2.97917 18.5854 2.5875 18.1938C2.19583 17.8021 2 17.3313 2 16.7812V5.78125C2 5.23125 2.19583 4.76042 2.5875 4.36875C2.97917 3.97708 3.45 3.78125 4 3.78125H20C20.55 3.78125 21.0208 3.97708 21.4125 4.36875C21.8042 4.76042 22 5.23125 22 5.78125V16.7812C22 17.3313 21.8042 17.8021 21.4125 18.1938C21.0208 18.5854 20.55 18.7812 20 18.7812H4Z" fill="white"/>
</g>
</svg>
