<svg width="24" height="25" viewBox="0 0 24 25" fill="none" xmlns="http://www.w3.org/2000/svg">
<mask id="mask0_133_748" style="mask-type:alpha" maskUnits="userSpaceOnUse" x="0" y="0" width="24" height="25">
<rect y="0.78125" width="24" height="24" fill="#D9D9D9"/>
</mask>
<g mask="url(#mask0_133_748)">
<path d="M21.6 23.7812L18.525 20.7313C18.225 20.9146 17.9042 21.0521 17.5625 21.1438C17.2208 21.2354 16.8667 21.2812 16.5 21.2812C15.4 21.2812 14.4583 20.8896 13.675 20.1063C12.8917 19.3229 12.5 18.3813 12.5 17.2812C12.5 16.1812 12.8917 15.2396 13.675 14.4563C14.4583 13.6729 15.4 13.2812 16.5 13.2812C17.6 13.2812 18.5417 13.6729 19.325 14.4563C20.1083 15.2396 20.5 16.1812 20.5 17.2812C20.5 17.6646 20.45 18.0271 20.35 18.3687C20.25 18.7104 20.1083 19.0313 19.925 19.3313L23 22.3813L21.6 23.7812ZM5.5 21.2812C4.4 21.2812 3.45833 20.8896 2.675 20.1063C1.89167 19.3229 1.5 18.3813 1.5 17.2812C1.5 16.1812 1.89167 15.2396 2.675 14.4563C3.45833 13.6729 4.4 13.2812 5.5 13.2812C6.6 13.2812 7.54167 13.6729 8.325 14.4563C9.10833 15.2396 9.5 16.1812 9.5 17.2812C9.5 18.3813 9.10833 19.3229 8.325 20.1063C7.54167 20.8896 6.6 21.2812 5.5 21.2812ZM16.5 19.2812C17.05 19.2812 17.5208 19.0854 17.9125 18.6938C18.3042 18.3021 18.5 17.8313 18.5 17.2812C18.5 16.7312 18.3042 16.2604 17.9125 15.8688C17.5208 15.4771 17.05 15.2812 16.5 15.2812C15.95 15.2812 15.4792 15.4771 15.0875 15.8688C14.6958 16.2604 14.5 16.7312 14.5 17.2812C14.5 17.8313 14.6958 18.3021 15.0875 18.6938C15.4792 19.0854 15.95 19.2812 16.5 19.2812ZM5.5 10.2812C4.4 10.2812 3.45833 9.88958 2.675 9.10625C1.89167 8.32292 1.5 7.38125 1.5 6.28125C1.5 5.18125 1.89167 4.23958 2.675 3.45625C3.45833 2.67292 4.4 2.28125 5.5 2.28125C6.6 2.28125 7.54167 2.67292 8.325 3.45625C9.10833 4.23958 9.5 5.18125 9.5 6.28125C9.5 7.38125 9.10833 8.32292 8.325 9.10625C7.54167 9.88958 6.6 10.2812 5.5 10.2812ZM16.5 10.2812C15.4 10.2812 14.4583 9.88958 13.675 9.10625C12.8917 8.32292 12.5 7.38125 12.5 6.28125C12.5 5.18125 12.8917 4.23958 13.675 3.45625C14.4583 2.67292 15.4 2.28125 16.5 2.28125C17.6 2.28125 18.5417 2.67292 19.325 3.45625C20.1083 4.23958 20.5 5.18125 20.5 6.28125C20.5 7.38125 20.1083 8.32292 19.325 9.10625C18.5417 9.88958 17.6 10.2812 16.5 10.2812Z" fill="white"/>
</g>
</svg>
