<svg width="100" height="100" viewBox="0 0 100 100" fill="none" xmlns="http://www.w3.org/2000/svg">
<path d="M66.6668 41.6667L75.6252 44.3542C81.346 46.0708 84.2085 46.9292 85.8543 49.1458C87.5002 51.3542 87.5002 54.3458 87.5002 60.3167V91.6667M33.3335 37.5H45.8335M33.3335 54.1667H45.8335M50.0002 91.6667V79.1667C50.0002 75.2375 50.0002 73.275 48.7793 72.0542C47.5585 70.8333 45.596 70.8333 41.6668 70.8333H37.5002C33.571 70.8333 31.6085 70.8333 30.3877 72.0542C29.1668 73.275 29.1668 75.2375 29.1668 79.1667V91.6667M8.3335 91.6667H91.6668" stroke="white" stroke-width="3" stroke-linecap="round" stroke-linejoin="round"/>
<path d="M12.5 91.6668V27.9876C12.5 17.5293 12.5 12.2959 15.7958 9.70012C19.0917 7.10428 23.9458 8.51678 33.6583 11.3334L54.4917 17.3793C60.35 19.0793 63.2792 19.9293 64.9708 22.2501C66.6667 24.5668 66.6667 27.7209 66.6667 34.0376V91.6668" stroke="white" stroke-width="3" stroke-linecap="round" stroke-linejoin="round"/>
</svg>
