<svg width="100" height="100" viewBox="0 0 100 100" fill="none" xmlns="http://www.w3.org/2000/svg">
<path d="M29.1668 91.6668V51.6584C29.1668 47.2084 29.1668 44.9834 30.1877 43.1168C31.2043 41.2501 33.0752 40.0459 36.821 37.6376L45.496 32.0626C47.6835 30.6584 48.7752 29.9543 50.0002 29.9543C51.2252 29.9543 52.3168 30.6584 54.5085 32.0626L63.1793 37.6376C66.9252 40.0459 68.796 41.2501 69.8127 43.1168C70.8335 44.9834 70.8335 47.2084 70.8335 51.6584V91.6668M50.0002 54.1668H50.0377M87.5002 91.6668V67.3418C87.5002 57.7959 82.2502 57.0209 70.8335 54.1668M12.5002 91.6668V67.3418C12.5002 57.7959 17.7502 57.0209 29.1668 54.1668M8.3335 91.6668H91.6668M50.0002 91.6668V75.0001M50.0002 29.1668V20.7584M50.0002 20.7584V12.3751C50.0002 10.4001 50.0002 9.4126 50.6085 8.8001C52.5252 6.87094 60.4168 11.4293 63.4168 13.2793C65.9502 14.8376 66.6668 17.9543 66.6668 20.7584H50.0002Z" stroke="white" stroke-width="3" stroke-linecap="round" stroke-linejoin="round"/>
</svg>
