<svg width="24" height="25" viewBox="0 0 24 25" fill="none" xmlns="http://www.w3.org/2000/svg">
<mask id="mask0_133_763" style="mask-type:alpha" maskUnits="userSpaceOnUse" x="0" y="0" width="24" height="25">
<rect y="0.78125" width="24" height="24" fill="#D9D9D9"/>
</mask>
<g mask="url(#mask0_133_763)">
<path d="M5 17.7812V10.7812H7V17.7812H5ZM11 17.7812V10.7812H13V17.7812H11ZM2 8.78125V6.78125L12 1.78125L22 6.78125V8.78125H2ZM2 21.7812V19.7812H14.05C14.0833 20.1313 14.125 20.4688 14.175 20.7938C14.225 21.1188 14.3 21.4479 14.4 21.7812H2ZM17 14.0312V10.7812H19V13.0312L17 14.0312ZM20 24.7812C18.85 24.4979 17.8958 23.8354 17.1375 22.7938C16.3792 21.7521 16 20.5979 16 19.3313V16.7812L20 14.7812L24 16.7812V19.3313C24 20.5979 23.6208 21.7521 22.8625 22.7938C22.1042 23.8354 21.15 24.4979 20 24.7812ZM19.275 21.7812L22.75 18.3313L21.7 17.2812L19.275 19.6562L18.3 18.6812L17.25 19.7563L19.275 21.7812Z" fill="white"/>
</g>
</svg>
