<svg width="24" height="25" viewBox="0 0 24 25" fill="none" xmlns="http://www.w3.org/2000/svg">
<mask id="mask0_345_261" style="mask-type:alpha" maskUnits="userSpaceOnUse" x="0" y="0" width="24" height="25">
<rect y="0.78125" width="24" height="24" fill="#D9D9D9"/>
</mask>
<g mask="url(#mask0_345_261)">
<path d="M4 23.7812V21.7812H20V23.7812H4ZM4 3.78125V1.78125H20V3.78125H4ZM12 13.7812C12.8333 13.7812 13.5417 13.4896 14.125 12.9062C14.7083 12.3229 15 11.6146 15 10.7812C15 9.94792 14.7083 9.23958 14.125 8.65625C13.5417 8.07292 12.8333 7.78125 12 7.78125C11.1667 7.78125 10.4583 8.07292 9.875 8.65625C9.29167 9.23958 9 9.94792 9 10.7812C9 11.6146 9.29167 12.3229 9.875 12.9062C10.4583 13.4896 11.1667 13.7812 12 13.7812ZM4 20.7812C3.45 20.7812 2.97917 20.5854 2.5875 20.1938C2.19583 19.8021 2 19.3312 2 18.7812V6.78125C2 6.23125 2.19583 5.76042 2.5875 5.36875C2.97917 4.97708 3.45 4.78125 4 4.78125H20C20.55 4.78125 21.0208 4.97708 21.4125 5.36875C21.8042 5.76042 22 6.23125 22 6.78125V18.7812C22 19.3312 21.8042 19.8021 21.4125 20.1938C21.0208 20.5854 20.55 20.7812 20 20.7812H4ZM5.75 18.7812H18.25C17.5 17.8479 16.5917 17.1146 15.525 16.5813C14.4583 16.0479 13.2833 15.7812 12 15.7812C10.7167 15.7812 9.54167 16.0479 8.475 16.5813C7.40833 17.1146 6.5 17.8479 5.75 18.7812Z" fill="white"/>
</g>
</svg>
